<svg width="595.5693359375px" height="137.1199981689453px" xmlns="http://www.w3.org/2000/svg" viewBox="-47.78466796875 6.440000915527349 595.5693359375 137.1199981689453" style="background: rgba(0, 0, 0, 0);" preserveAspectRatio="xMidYMid"><defs><filter id="editing-hole" x="-100%" y="-100%" width="300%" height="300%"><feFlood flood-color="#000" result="black"></feFlood><feMorphology operator="dilate" radius="2" in="SourceGraphic" result="erode"></feMorphology><feGaussianBlur in="erode" stdDeviation="4" result="blur"></feGaussianBlur><feOffset in="blur" dx="2" dy="2" result="offset"></feOffset><feComposite operator="atop" in="offset" in2="black" result="merge"></feComposite><feComposite operator="in" in="merge" in2="SourceGraphic" result="inner-shadow"></feComposite></filter></defs><g filter="url(#editing-hole)"><g transform="translate(37.33338022232056, 99.84500312805176)"><path d="M8.59 0L8.59 0L8.59 0Q8.72-1.09 9.20-2.06L9.20-2.06L9.20-2.06Q9.69-3.03 10.42-3.77L10.42-3.77L10.42-3.77Q11.16-4.50 12.09-4.92L12.09-4.92L12.09-4.92Q13.03-5.34 14.06-5.34L14.06-5.34L25.53-5.34L25.53-12.94L9.16-21.09L9.16-21.09Q7.28-22.03 6.16-23.94L6.16-23.94L6.16-23.94Q5.03-25.84 5.03-28.69L5.03-28.69L5.03-39.44L5.03-39.44Q5.03-41.09 5.48-42.55L5.48-42.55L5.48-42.55Q5.94-44 6.73-45.08L6.73-45.08L6.73-45.08Q7.53-46.16 8.59-46.77L8.59-46.77L8.59-46.77Q9.66-47.38 10.88-47.38L10.88-47.38L28.16-47.38L28.16-47.38Q29.38-47.38 30.44-46.77L30.44-46.77L30.44-46.77Q31.50-46.16 32.30-45.08L32.30-45.08L32.30-45.08Q33.09-44 33.56-42.55L33.56-42.55L33.56-42.55Q34.03-41.09 34.03-39.44L34.03-39.44L34.03-30.19L26.56-30.19L26.56-42.03L12.50-42.03L12.50-27.22L29.44-18.56L29.44-18.56Q30.25-18.16 30.91-17.44L30.91-17.44L30.91-17.44Q31.56-16.72 32.03-15.77L32.03-15.77L32.03-15.77Q32.50-14.81 32.75-13.66L32.75-13.66L32.75-13.66Q33-12.50 33-11.25L33-11.25L33-7.88L33-7.88Q33-6.25 32.53-4.81L32.53-4.81L32.53-4.81Q32.06-3.38 31.27-2.31L31.27-2.31L31.27-2.31Q30.47-1.25 29.41-0.63L29.41-0.63L29.41-0.63Q28.34 0 27.13 0L27.13 0L8.59 0ZM45.97 0L45.97-49.69L53.44-49.69L53.44-29.16L53.44-29.16Q54.31-30.84 55.61-31.78L55.61-31.78L55.61-31.78Q56.91-32.72 58.44-32.72L58.44-32.72L67.84-32.72L67.84-32.72Q69.06-32.72 70.14-32.09L70.14-32.09L70.14-32.09Q71.22-31.47 72.03-30.39L72.03-30.39L72.03-30.39Q72.84-29.31 73.31-27.88L73.31-27.88L73.31-27.88Q73.78-26.44 73.78-24.78L73.78-24.78L73.78-5.34L80.47-5.34L80.47-5.34Q80.34-4.25 79.86-3.27L79.86-3.27L79.86-3.27Q79.38-2.28 78.66-1.56L78.66-1.56L78.66-1.56Q77.94-0.84 77-0.42L77-0.42L77-0.42Q76.06 0 75.06 0L75.06 0L72.28 0L72.28 0Q71.06 0 69.97-0.63L69.97-0.63L69.97-0.63Q68.88-1.25 68.06-2.33L68.06-2.33L68.06-2.33Q67.25-3.41 66.78-4.84L66.78-4.84L66.78-4.84Q66.31-6.28 66.31-7.94L66.31-7.94L66.31-27.38L53.44-27.38L53.44 0L45.97 0ZM85.81-7.88L85.81-24.78L85.81-24.78Q85.81-26.44 86.28-27.89L86.28-27.89L86.28-27.89Q86.75-29.34 87.55-30.42L87.55-30.42L87.55-30.42Q88.34-31.50 89.41-32.11L89.41-32.11L89.41-32.11Q90.47-32.72 91.69-32.72L91.69-32.72L117.88-32.72L117.88-32.72Q117.75-31.63 117.27-30.64L117.27-30.64L117.27-30.64Q116.78-29.66 116.05-28.94L116.05-28.94L116.05-28.94Q115.31-28.22 114.38-27.80L114.38-27.80L114.38-27.80Q113.44-27.38 112.41-27.38L112.41-27.38L110.44-27.38L110.44-27.38Q111.03-26.94 111.61-26.25L111.61-26.25L111.61-26.25Q112.19-25.56 112.64-24.66L112.64-24.66L112.64-24.66Q113.09-23.75 113.36-22.67L113.36-22.67L113.36-22.67Q113.63-21.59 113.63-20.34L113.63-20.34L113.63-7.88L113.63-7.88Q113.63-6.25 113.16-4.81L113.16-4.81L113.16-4.81Q112.69-3.38 111.88-2.31L111.88-2.31L111.88-2.31Q111.06-1.25 109.98-0.63L109.98-0.63L109.98-0.63Q108.91 0 107.69 0L107.69 0L91.69 0L91.69 0Q90.47 0 89.41-0.63L89.41-0.63L89.41-0.63Q88.34-1.25 87.55-2.31L87.55-2.31L87.55-2.31Q86.75-3.38 86.28-4.81L86.28-4.81L86.28-4.81Q85.81-6.25 85.81-7.88L85.81-7.88ZM93.28-5.34L106.16-5.34L106.16-27.38L93.28-27.38L93.28-5.34ZM125.28-7.94L125.28-32.72L132.75-32.72L132.75-5.38L144-5.38L144-32.72L151.50-32.72L151.50-5.38L162.75-5.38L162.75-32.72L176.59-32.72L176.59-32.72Q176.47-31.63 175.98-30.64L175.98-30.64L175.98-30.64Q175.50-29.66 174.77-28.94L174.77-28.94L174.77-28.94Q174.03-28.22 173.09-27.80L173.09-27.80L173.09-27.80Q172.16-27.38 171.13-27.38L171.13-27.38L170.22-27.38L170.22-7.94L170.22-7.94Q170.22-6.28 169.75-4.84L169.75-4.84L169.75-4.84Q169.28-3.41 168.47-2.33L168.47-2.33L168.47-2.33Q167.66-1.25 166.56-0.63L166.56-0.63L166.56-0.63Q165.47 0 164.25 0L164.25 0L152.84 0L152.84 0Q151.31 0 149.94-1.05L149.94-1.05L149.94-1.05Q148.56-2.09 147.66-3.88L147.66-3.88L147.66-3.88Q146.75-2.09 145.38-1.05L145.38-1.05L145.38-1.05Q144 0 142.47 0L142.47 0L131.25 0L131.25 0Q130.03 0 128.94-0.63L128.94-0.63L128.94-0.63Q127.84-1.25 127.03-2.33L127.03-2.33L127.03-2.33Q126.22-3.41 125.75-4.84L125.75-4.84L125.75-4.84Q125.28-6.28 125.28-7.94L125.28-7.94ZM182.94 0L182.94-47.38L190.41-47.38L190.41-34.81L199.50-44.94L199.50-44.94Q200.50-46.13 201.95-46.75L201.95-46.75L201.95-46.75Q203.41-47.38 204.91-47.38L204.91-47.38L204.91-47.38Q206.22-47.38 207.28-46.81L207.28-46.81L207.28-46.81Q208.34-46.25 209.09-45.27L209.09-45.27L209.09-45.27Q209.84-44.28 210.25-42.95L210.25-42.95L210.25-42.95Q210.66-41.63 210.66-40.13L210.66-40.13L210.66-34.81L218.88-44.94L218.88-44.94Q219.78-46.19 221.30-46.78L221.30-46.78L221.30-46.78Q222.81-47.38 224.28-47.38L224.28-47.38L224.28-47.38Q225.59-47.38 226.66-46.81L226.66-46.81L226.66-46.81Q227.72-46.25 228.47-45.27L228.47-45.27L228.47-45.27Q229.22-44.28 229.63-42.95L229.63-42.95L229.63-42.95Q230.03-41.63 230.03-40.13L230.03-40.13L230.03-5.34L236.78-5.34L236.78-5.34Q236.66-4.25 236.17-3.27L236.17-3.27L236.17-3.27Q235.69-2.28 234.95-1.56L234.95-1.56L234.95-1.56Q234.22-0.84 233.28-0.42L233.28-0.42L233.28-0.42Q232.34 0 231.31 0L231.31 0L228.38 0L228.38 0Q227.16 0 226.11-0.63L226.11-0.63L226.11-0.63Q225.06-1.25 224.30-2.31L224.30-2.31L224.30-2.31Q223.53-3.38 223.09-4.81L223.09-4.81L223.09-4.81Q222.66-6.25 222.66-7.88L222.66-7.88L222.66-41.25L210.66-26.91L210.66 0L203.28 0L203.28-41.25L190.41-26.91L190.41 0L182.94 0ZM244.03-7.94L244.03-24.78L244.03-24.78Q244.03-26.44 244.50-27.88L244.50-27.88L244.50-27.88Q244.97-29.31 245.77-30.39L245.77-30.39L245.77-30.39Q246.56-31.47 247.66-32.09L247.66-32.09L247.66-32.09Q248.75-32.72 249.97-32.72L249.97-32.72L266.56-32.72L266.56-32.72Q267.78-32.72 268.86-32.09L268.86-32.09L268.86-32.09Q269.94-31.47 270.75-30.39L270.75-30.39L270.75-30.39Q271.56-29.31 272.03-27.88L272.03-27.88L272.03-27.88Q272.50-26.44 272.50-24.78L272.50-24.78L272.50-14.38L251.50-14.38L251.50-5.34L274.44-5.34L274.44-5.34Q274.31-4.25 273.83-3.27L273.83-3.27L273.83-3.27Q273.34-2.28 272.61-1.56L272.61-1.56L272.61-1.56Q271.88-0.84 270.94-0.42L270.94-0.42L270.94-0.42Q270 0 268.97 0L268.97 0L249.97 0L249.97 0Q248.75 0 247.66-0.63L247.66-0.63L247.66-0.63Q246.56-1.25 245.77-2.33L245.77-2.33L245.77-2.33Q244.97-3.41 244.50-4.84L244.50-4.84L244.50-4.84Q244.03-6.28 244.03-7.94L244.03-7.94ZM251.50-18.75L265.03-18.75L265.03-27.38L251.50-27.38L251.50-18.75ZM286.47 0L286.47 0L286.47 0Q286.59-1.09 287.08-2.06L287.08-2.06L287.08-2.06Q287.56-3.03 288.30-3.77L288.30-3.77L288.30-3.77Q289.03-4.50 289.97-4.92L289.97-4.92L289.97-4.92Q290.91-5.34 291.94-5.34L291.94-5.34L303.41-5.34L303.41-12.94L287.03-21.09L287.03-21.09Q285.16-22.03 284.03-23.94L284.03-23.94L284.03-23.94Q282.91-25.84 282.91-28.69L282.91-28.69L282.91-39.44L282.91-39.44Q282.91-41.09 283.36-42.55L283.36-42.55L283.36-42.55Q283.81-44 284.61-45.08L284.61-45.08L284.61-45.08Q285.41-46.16 286.47-46.77L286.47-46.77L286.47-46.77Q287.53-47.38 288.75-47.38L288.75-47.38L306.03-47.38L306.03-47.38Q307.25-47.38 308.31-46.77L308.31-46.77L308.31-46.77Q309.38-46.16 310.17-45.08L310.17-45.08L310.17-45.08Q310.97-44 311.44-42.55L311.44-42.55L311.44-42.55Q311.91-41.09 311.91-39.44L311.91-39.44L311.91-30.19L304.44-30.19L304.44-42.03L290.38-42.03L290.38-27.22L307.31-18.56L307.31-18.56Q308.13-18.16 308.78-17.44L308.78-17.44L308.78-17.44Q309.44-16.72 309.91-15.77L309.91-15.77L309.91-15.77Q310.38-14.81 310.63-13.66L310.63-13.66L310.63-13.66Q310.88-12.50 310.88-11.25L310.88-11.25L310.88-7.88L310.88-7.88Q310.88-6.25 310.41-4.81L310.41-4.81L310.41-4.81Q309.94-3.38 309.14-2.31L309.14-2.31L309.14-2.31Q308.34-1.25 307.28-0.63L307.28-0.63L307.28-0.63Q306.22 0 305 0L305 0L286.47 0ZM323.84-7.94L323.84-24.78L323.84-24.78Q323.84-26.44 324.31-27.88L324.31-27.88L324.31-27.88Q324.78-29.31 325.58-30.39L325.58-30.39L325.58-30.39Q326.38-31.47 327.47-32.09L327.47-32.09L327.47-32.09Q328.56-32.72 329.78-32.72L329.78-32.72L346.38-32.72L346.38-32.72Q347.59-32.72 348.67-32.09L348.67-32.09L348.67-32.09Q349.75-31.47 350.56-30.39L350.56-30.39L350.56-30.39Q351.38-29.31 351.84-27.88L351.84-27.88L351.84-27.88Q352.31-26.44 352.31-24.78L352.31-24.78L352.31-14.38L331.31-14.38L331.31-5.34L354.25-5.34L354.25-5.34Q354.13-4.25 353.64-3.27L353.64-3.27L353.64-3.27Q353.16-2.28 352.42-1.56L352.42-1.56L352.42-1.56Q351.69-0.84 350.75-0.42L350.75-0.42L350.75-0.42Q349.81 0 348.78 0L348.78 0L329.78 0L329.78 0Q328.56 0 327.47-0.63L327.47-0.63L327.47-0.63Q326.38-1.25 325.58-2.33L325.58-2.33L325.58-2.33Q324.78-3.41 324.31-4.84L324.31-4.84L324.31-4.84Q323.84-6.28 323.84-7.94L323.84-7.94ZM331.31-18.75L344.84-18.75L344.84-27.38L331.31-27.38L331.31-18.75ZM364.63-7.94L364.63-27.91L362.13-27.91L362.13-32.72L364.63-32.72L364.63-41.41L372.09-45.13L372.09-32.72L380.50-32.72L380.50-27.91L372.09-27.91L372.09-5.34L383.28-5.34L383.28-5.34Q383.16-4.25 382.67-3.27L382.67-3.27L382.67-3.27Q382.19-2.28 381.44-1.56L381.44-1.56L381.44-1.56Q380.69-0.84 379.75-0.42L379.75-0.42L379.75-0.42Q378.81 0 377.78 0L377.78 0L370.56 0L370.56 0Q369.34 0 368.25-0.63L368.25-0.63L368.25-0.63Q367.16-1.25 366.36-2.33L366.36-2.33L366.36-2.33Q365.56-3.41 365.09-4.84L365.09-4.84L365.09-4.84Q364.63-6.28 364.63-7.94L364.63-7.94ZM384.06 0L397.19-34.59L404.69-34.59L404.69-34.59Q404.41-33.91 404.27-33.23L404.27-33.23L404.27-33.23Q404.13-32.56 404.06-32.13L404.06-32.13L404.06-32.13Q403.97-30.97 404.44-30.03L404.44-30.03L404.44-30.03Q404.91-29.09 405.70-28.23L405.70-28.23L405.70-28.23Q406.50-27.38 407.55-26.53L407.55-26.53L407.55-26.53Q408.59-25.69 409.69-24.75L409.69-24.75L409.69-24.75Q410.94-23.75 412.22-22.45L412.22-22.45L412.22-22.45Q413.50-21.16 414.53-19.61L414.53-19.61L414.53-19.61Q415.56-18.06 416.20-16.33L416.20-16.33L416.20-16.33Q416.84-14.59 416.78-12.72L416.78-12.72L416.78-12.72Q416.72-11.41 416.22-10.20L416.22-10.20L416.22-10.20Q415.72-9 414.91-8.05L414.91-8.05L414.91-8.05Q414.09-7.09 413.02-6.41L413.02-6.41L413.02-6.41Q411.94-5.72 410.75-5.41L410.75-5.41L422.38-5.41L422.38-5.41Q421.94-4.19 421.33-3.20L421.33-3.20L421.33-3.20Q420.72-2.22 419.95-1.50L419.95-1.50L419.95-1.50Q419.19-0.78 418.28-0.39L418.28-0.39L418.28-0.39Q417.38 0 416.41 0L416.41 0L407.84 0L407.84 0Q406.41 0 405.45-0.45L405.45-0.45L405.45-0.45Q404.50-0.91 403.95-1.66L403.95-1.66L403.95-1.66Q403.41-2.41 403.20-3.39L403.20-3.39L403.20-3.39Q403-4.38 403.09-5.44L403.09-5.44L403.09-5.44Q404.09-5.56 405.06-5.97L405.06-5.97L405.06-5.97Q406.03-6.38 406.80-7.14L406.80-7.14L406.80-7.14Q407.56-7.91 408.08-9.06L408.08-9.06L408.08-9.06Q408.59-10.22 408.72-11.84L408.72-11.84L408.72-11.84Q408.84-13.13 408.47-14.25L408.47-14.25L408.47-14.25Q408.09-15.38 407.47-16.38L407.47-16.38L407.47-16.38Q406.84-17.38 406.03-18.28L406.03-18.28L406.03-18.28Q405.22-19.19 404.44-20.03L404.44-20.03L404.44-20.03Q403.63-21.09 402.81-22.59L402.81-22.59L402.81-22.59Q402-24.09 401.66-26.25L401.66-26.25L391.78 0L384.06 0Z" fill="#ccc"></path></g></g><style>text {
  font-size: 64px;
  font-family: Arial Black;
  dominant-baseline: central;
  text-anchor: middle;
}</style></svg>